<svg xmlns="http://www.w3.org/2000/svg" viewBox="0 0 23.46 24.48"><defs><style></style></defs><title>cart</title><g id="Layer_2" data-name="Layer 2"><g id="Layer_1-2" data-name="Layer 1"><path class="cls-1" d="M19.74,24.48a3,3,0,0,1-3-2.94,2.85,2.85,0,0,1,.22-1.11H11.6a2.84,2.84,0,0,1,.22,1.11,3,3,0,0,1-6,0,2.86,2.86,0,0,1,.26-1.2,3,3,0,0,1-2.31-2.88V3.06L.58,1.76a.92.92,0,0,1-.51-.51.89.89,0,0,1,0-.7A.93.93,0,0,1,.94,0,1,1,0,0,1,1.3.07L5,1.6l.14.08.09.06.08.07.08.1L5.49,2h0l0,0a.2.2,0,0,1,0,.1.39.39,0,0,1,0,.11.5.5,0,0,1,0,.11l0,.13V4.57l17,2.28.11,0h0l.08,0,.1,0L23,7l.09.06a.36.36,0,0,1,.11.13l.08.1,0,.07,0,.1a.3.3,0,0,1,0,.14v5.71a3,3,0,0,1-3.05,3H6.79a3.19,3.19,0,0,1-1.18-.23v1.41a1.16,1.16,0,0,0,1.18,1.14H19.74a2.94,2.94,0,1,1,0,5.87Zm0-4a1.11,1.11,0,1,0,1.15,1.11A1.13,1.13,0,0,0,19.74,20.43Zm-10.94,0A1.11,1.11,0,1,0,10,21.54,1.13,1.13,0,0,0,8.81,20.43Zm-3.2-7.11a1.16,1.16,0,0,0,1.18,1.14H20.41a1.17,1.17,0,0,0,1.18-1.15V8.55l-16-2.14Z"/></g></g></svg>