<svg xmlns="http://www.w3.org/2000/svg" width="54" height="70" viewBox="0 0 54 70">
  <path d="M296.17512,160.453837 C296.119036,160.447821 287.997666,160.685575 286.790147,152.050709 C288.131881,151.121844 289.368476,149.915986 290.457902,148.452825 C292.577228,145.606346 293.942801,142.035533 294.429226,138.173099 C294.596374,138.023119 294.734723,137.836498 294.827874,137.616518 C295.707986,135.536347 296.154312,133.315218 296.154312,131.01452 C296.154312,122.184146 289.440681,115 281.18799,115 C279.029668,115 276.935698,115.49328 274.958028,116.467399 C274.203587,116.524548 273.464304,116.656208 272.755336,116.859371 C269.365931,117.83103 266.607777,120.324365 264.988794,123.880412 C263.417076,127.333101 263.107307,131.397605 264.116812,135.32539 C264.330122,136.155134 264.601308,136.970523 264.922927,137.749545 C265.010015,137.960229 265.13982,138.140013 265.295669,138.287943 C266.083595,144.316544 268.974724,149.311554 272.916834,152.038678 C271.705595,160.688172 263.587118,160.448095 263.531172,160.45411 C257.69104,160.650712 253,165.422597 253,171.264031 L253,183.423909 C253,184.294396 253.711173,185 254.588529,185 L268.537906,185 L291.167973,185 L305.117625,185 C305.994844,185 306.706292,184.294396 306.706292,183.423909 L306.706292,171.264031 C306.706154,165.422323 302.015528,160.650301 296.17512,160.453837 Z M273.637377,119.887822 C274.217091,119.721573 274.829326,119.622999 275.457131,119.594971 C275.690146,119.584581 275.917926,119.523468 276.124484,119.415734 C277.732718,118.577376 279.436447,118.152318 281.188128,118.152318 C287.688586,118.152318 292.977254,123.922248 292.977254,131.01452 C292.977254,131.22739 292.971191,131.439167 292.96182,131.650124 C291.700973,130.379736 289.949154,129.590186 288.014615,129.590186 L277.187729,129.590186 C276.543526,129.590186 275.932119,129.389484 275.419374,129.00968 C274.981592,128.68552 274.643161,128.249798 274.441012,127.749682 C274.127936,126.976129 273.355995,126.492282 272.515706,126.544645 C271.672385,126.597966 270.962728,127.179019 270.749693,127.99099 C270.122301,130.383017 268.871238,132.586372 267.154833,134.373146 C265.55776,127.851811 268.44007,121.377644 273.637377,119.887822 Z M272.255269,147.147984 C270.188169,144.642481 268.834446,141.259109 268.405345,137.554995 C270.409885,135.78244 271.994556,133.576624 273.026246,131.12991 C273.182784,131.273191 273.347176,131.408679 273.518872,131.535964 C274.584873,132.32524 275.853436,132.742641 277.187867,132.742641 L288.014753,132.742641 C289.546648,132.742641 290.867023,133.65428 291.456245,134.958984 C291.456107,134.970195 291.454454,134.980859 291.454454,134.99207 C291.454454,143.889436 286.251221,151.127996 279.855489,151.127996 C277.07198,151.128133 274.372665,149.7146 272.255269,147.147984 Z M275.905386,153.586468 C277.164717,154.038596 278.489364,154.280451 279.855489,154.280451 C281.210727,154.280451 282.534823,154.046389 283.802422,153.594807 C284.384065,156.601384 286.068915,159.221867 288.422358,161.025867 L280.080788,172.812094 C280.026358,172.889067 279.950707,172.928031 279.855902,172.928031 C279.761235,172.928031 279.685584,172.88893 279.631292,172.812231 L271.287655,161.023269 C273.641236,159.217218 275.325534,156.594821 275.905386,153.586468 Z M303.528958,181.847545 L291.167973,181.847545 L268.537906,181.847545 L256.177059,181.847545 L256.177059,171.263757 C256.177059,167.036148 259.64363,163.596721 263.904604,163.596721 C263.962479,163.596721 266.51876,163.535061 268.538595,162.62438 L277.030916,174.623614 C277.676359,175.5358 278.732439,176.080349 279.855764,176.080349 L279.855902,176.080349 C280.979089,176.080349 282.035307,175.5358 282.68075,174.623614 L291.171556,162.626294 C293.475116,163.596858 295.743676,163.596858 295.801551,163.596858 C300.062525,163.596858 303.528958,167.036285 303.528958,171.263894 L303.528958,181.847545 Z" transform="translate(-253 -115)"/>
</svg>
