<svg xmlns="http://www.w3.org/2000/svg" width="57" height="70" viewBox="0 0 57 70">
  <path d="M895.715524,120.342991 C893.889399,120.666633 892.306647,121.771237 891.352528,123.433031 C890.206252,125.429505 890.206252,127.81366 891.352528,129.810133 L902.459476,149.154924 C903.606097,151.151745 905.659366,152.343648 907.952264,152.343648 C910.245162,152.343301 912.298431,151.151397 913.444707,149.154924 L924.552001,129.810481 C925.698277,127.81366 925.698277,125.429852 924.551655,123.433031 C923.587646,121.754519 921.983026,120.64471 920.133771,120.333785 C919.521033,121.340152 918.417548,122.011648 917.158088,122.011648 C915.232522,122.011648 913.671542,120.442037 913.671542,118.505824 C913.671542,116.569611 915.232522,115 917.158088,115 C918.482001,115 919.633567,115.741982 920.223942,116.834952 C923.289192,117.191892 925.971333,118.951897 927.54615,121.694549 C929.31795,124.77966 929.31795,128.463504 927.54615,131.548615 L916.438856,150.893058 C914.96201,153.465665 912.508668,155.169378 909.680842,155.665888 L909.680842,164.995281 C909.680842,176.025953 902.779326,185 894.296538,185 C885.813404,185 878.911889,176.025953 878.911889,164.995281 L878.911889,153.887073 C874.973056,153.079374 872,149.56903 872,145.373376 C872,140.582466 875.876246,136.684788 880.640812,136.684788 C885.405378,136.684788 889.281624,140.582466 889.281624,145.373376 C889.281624,149.569378 886.308568,153.079722 882.370081,153.887073 L882.370081,164.995281 C882.370081,174.108755 887.72006,181.523035 894.296538,181.523035 C900.873016,181.523035 906.223341,174.108755 906.223341,164.995281 L906.223341,155.665888 C903.395169,155.169378 900.942173,153.465665 899.464981,150.893058 L888.358033,131.548615 C886.586578,128.463504 886.586578,124.780007 888.358033,121.694549 C889.921735,118.970946 892.577457,117.21644 895.615733,116.842371 C896.204897,115.745342 897.358676,115 898.685582,115 C900.611149,115 902.172129,116.569611 902.172129,118.505824 C902.172129,120.442037 900.611149,122.011648 898.685582,122.011648 C897.429967,122.011648 896.329375,121.344245 895.715524,120.342991 Z M880.707661,150.4375 C883.595465,150.4375 885.936492,148.086995 885.936492,145.1875 C885.936492,142.288005 883.595465,139.9375 880.707661,139.9375 C877.819858,139.9375 875.478831,142.288005 875.478831,145.1875 C875.478831,148.086995 877.819858,150.4375 880.707661,150.4375 Z" transform="translate(-872 -115)"/>
</svg>
