<svg xmlns="http://www.w3.org/2000/svg" viewBox="0 0 59 75"><defs><style>.cls-1{isolation:isolate;}</style></defs><title>Asset 1</title><g id="Layer_2" data-name="Layer 2"><g id="Layer_1-2" data-name="Layer 1"><path class="cls-1" d="M17.66,75V69.67H30.27V59.2A32,32,0,0,1,0,27.1,32,32,0,0,1,9.36,4.35L10.61,3.1l3.64,3.65c.61-.54,1.23-1,1.86-1.5h0l.21-.2.54-.37c.63-.43,1.32-.85,2.16-1.32l.39-.2c.6-.32,1.22-.62,1.84-.89l.46-.2A26.74,26.74,0,0,1,26.38.6l.41-.08.19,0Q27.91.32,28.85.2H29l.58-.06C30.48,0,31.27,0,32,0s1.52,0,2.45.12l.6.07h.12q.9.11,1.79.27l.24,0,.42.08c.75.16,1.5.35,2.22.58l.42.14.26.09c.52.17,1,.36,1.54.57l.82.35c.49.22,1,.46,1.46.71l.24.12.41.21c.63.35,1.22.71,1.78,1.07l.67.44v0a27.08,27.08,0,0,1,4.81,40l3.64,3.65-1.24,1.25A31.82,31.82,0,0,1,33.79,59.2V69.67H46.4V75Zm-7-66.86a28.77,28.77,0,0,0,1.21,39.21,28.45,28.45,0,0,0,39,1.21l-1.11-1.11a27,27,0,0,1-38-38.19Zm5.9,1.25a23.48,23.48,0,1,0,29.84-.87,2.88,2.88,0,0,1-.84.45,14.31,14.31,0,0,0-7.77,5.48,3.21,3.21,0,0,1-.49,3,2.82,2.82,0,0,1-2.24.93h-.17a2.31,2.31,0,0,1,0,.34,3.11,3.11,0,0,1,1.76,2.06l0,.1a3.43,3.43,0,0,1,2.08-.74,5.24,5.24,0,0,1,2.31.68,5.24,5.24,0,0,0,1.64.58,3.09,3.09,0,0,1,1.86.9,15.94,15.94,0,0,1,2.13,3,6.28,6.28,0,0,0,1.8,2.33c3.09,1.61,1.46,5.92.58,8.24l-.06.15c-.11.29-.21.55-.28.78l-.17.49-.46.4a11,11,0,0,0-2.53,2.86,17.3,17.3,0,0,1-3,3.5A17,17,0,0,1,37,47.55a3.11,3.11,0,0,1-1,.18,3.1,3.1,0,0,1-2.7-4.6c2.77-5,1.94-6,1.74-6.2-3.31-2.75-4.57-6.8-3.27-10.41a3.54,3.54,0,0,1-1.41-2.84A4.21,4.21,0,0,0,30,22.47a7.53,7.53,0,0,0-2.21-.54A12.62,12.62,0,0,1,25,21.27c-3.89-1.5-6.09-6.54-7.86-10.59Zm17.31,14.3a3.17,3.17,0,0,1,1.23,3.85c-.9,2.22-.06,4.84,2.13,6.67,2.73,2.27,1.35,6.28-.3,9.49a13.1,13.1,0,0,0,3.35-2.24,13.92,13.92,0,0,0,2.39-2.84,14.89,14.89,0,0,1,2.88-3.33l.18-.49c1.14-3,1.1-3.79,1.06-4a8.79,8.79,0,0,1-3.14-3.63,14.07,14.07,0,0,0-1.53-2.28,8.19,8.19,0,0,1-2.59-.87,5.4,5.4,0,0,0-.77-.33,3.37,3.37,0,0,1-2.17.8,3.26,3.26,0,0,1-1-.17,3.46,3.46,0,0,1-1.82-1.45l0,.3C33.81,23.38,33.83,23.55,33.85,23.69ZM19.57,7.48c.23.56.47,1.1.72,1.66l.05.12c1.43,3.27,3.38,7.74,5.9,8.71a9.32,9.32,0,0,0,2,.46,3.62,3.62,0,0,1-1.15-2.78c.12-2.66,1.8-2.85,3.57-3h.11a5.55,5.55,0,0,1,2.15-.5,3.16,3.16,0,0,1,1.77.51l0,0,.12-.17a17.41,17.41,0,0,1,8-6.22h0c-.44-.23-.9-.45-1.35-.66L41,5.35c-.53-.22-1.11-.44-1.78-.66l-.6-.19c-.56-.16-1.1-.31-1.65-.43L36.66,4c-.61-.12-1.26-.22-2-.31l-.49,0c-.86-.08-1.53-.11-2.16-.11s-1.32,0-2.14.11l-.56.06c-.61.07-1.21.16-1.77.27L27.21,4c-.68.14-1.37.32-2.06.53l-.32.11c-.59.19-1.17.4-1.73.64l-.35.15a23.21,23.21,0,0,0-3.17,1.69C19.58,7.25,19.58,7.37,19.57,7.48Zm13.25,8.87a3.57,3.57,0,0,0-.06-.7,3.2,3.2,0,0,0-.58.2l.31.29.16.19Z"/></g></g></svg>