<svg xmlns="http://www.w3.org/2000/svg" width="96" height="93" viewBox="0 0 96 93">
  <path d="M110.437999,81.733 C111.848999,78.498 112.435999,77.188 112.087999,72.339 C111.522999,64.458 108.202999,57.542 104.114999,52.881 C98.8469988,46.876 89.0749988,44 79.1819988,44 C69.6919988,44 60.0919988,46.646 54.2509988,51.714 C48.3909988,56.799 42.2199988,64.762 42.0089988,74.887 C41.7419988,87.684 47.4649988,95.948 52.7209988,103.963 C54.4039988,106.527 56.6849988,109.629 57.0929988,112.707 C57.9429988,119.133 57.0119988,124.381 54.3179988,128.447 C52.4299988,131.297 46.4639988,136.011 50.9179988,136.011 L91.6239988,136.011 C89.5209988,132.135 88.7789988,125.745 91.6959988,125.745 L91.7019988,125.745 C95.0149988,125.841 97.6009988,126.474 100.566999,126.474 C101.477999,126.474 102.425999,126.414 103.441999,126.26 C106.703999,125.765 108.717999,124.867 109.344999,121.888 C110.077999,118.399 108.143999,117.933 108.469999,116.203 C108.917999,113.816 110.386999,112.631 111.130999,109.863 C112.141999,106.1 110.282999,103.824 111.876999,103.054 C113.980999,101.734 115.814999,101.816 117.649999,100.025 C120.685999,97.182 108.788999,85.956 110.437999,81.733 Z M111.014999,93.276 C111.858999,94.577 113.130999,96.542 113.769999,97.848 C113.540999,97.945 113.272999,98.046 112.947999,98.167 C112.099999,98.484 111.053999,98.875 109.909999,99.571 C106.752999,101.259 107.170999,104.649 107.330999,105.944 C107.445999,106.88 107.554999,107.762 107.268999,108.826 C107.032999,109.709 106.675999,110.357 106.225999,111.178 C105.628999,112.264 104.887999,113.615 104.539999,115.464 C104.157999,117.486 104.889999,118.966 105.282999,119.761 C105.551999,120.304 105.578999,120.362 105.430999,121.067 C105.307999,121.65 105.245999,121.942 102.842999,122.307 C102.092999,122.42 101.348999,122.476 100.566999,122.476 C99.2589988,122.476 97.9479988,122.32 96.5589988,122.154 C95.1639988,121.988 93.5839988,121.8 91.8169988,121.749 C91.7789988,121.747 91.7349988,121.747 91.6959988,121.747 C89.6649988,121.747 87.8939988,122.764 86.8399988,124.536 C85.6169988,126.59 85.5789988,129.381 86.0689988,132.013 L56.6349988,132.013 C57.0079988,131.56 57.3549988,131.106 57.6519988,130.658 C60.8869988,125.775 62.0329988,119.559 61.0579988,112.183 C60.5749988,108.537 58.3969988,105.271 56.6469988,102.647 C56.4479988,102.348 56.2519988,102.056 56.0649988,101.771 L55.5439988,100.978 C50.5199988,93.331 45.7739988,86.107 46.0069988,74.971 C46.1959988,65.872 52.0199988,58.946 56.8719988,54.737 C61.6599988,50.583 70.2089988,48.002 79.1819988,48.002 C88.7819988,48.002 96.9779988,50.813 101.106999,55.521 C105.095999,60.069 107.643999,66.304 108.096999,72.628 C108.371999,76.463 108.069999,77.157 106.796999,80.076 L106.770999,80.137 C106.749999,80.185 106.729999,80.233 106.709999,80.282 C105.163999,84.243 108.005999,88.63 111.014999,93.276 Z M115.247999,113.436 C116.561999,113.436 117.627999,114.501 117.627999,115.816 C117.627999,117.128 116.560999,118.196 115.247999,118.196 C113.934999,118.196 112.868999,117.128 112.868999,115.816 C112.868999,114.501 113.935999,113.436 115.247999,113.436 Z M115.247999,110.14 C113.934113,110.14 112.868999,109.074885 112.868999,107.761 C112.868999,106.447115 113.934113,105.382 115.247999,105.382 C116.561884,105.382 117.626999,106.447115 117.626999,107.761 C117.626999,109.074885 116.561884,110.14 115.247999,110.14 Z M126.230999,105.747 C124.917113,105.747 123.851999,104.681885 123.851999,103.368 C123.851999,102.054115 124.917113,100.989 126.230999,100.989 C127.544884,100.989 128.609999,102.054115 128.609999,103.368 C128.609999,104.681885 127.544884,105.747 126.230999,105.747 Z M123.483999,117.46 C122.170113,117.46 121.104999,116.394885 121.104999,115.081 C121.104999,113.767115 122.170113,112.702 123.483999,112.702 C124.797884,112.702 125.862999,113.767115 125.862999,115.081 C125.862999,116.394885 124.797884,117.46 123.483999,117.46 Z M124.581999,127.527 C123.268113,127.527 122.202999,126.461885 122.202999,125.148 C122.202999,123.834115 123.268113,122.769 124.581999,122.769 C125.895884,122.769 126.960999,123.834115 126.960999,125.148 C126.960999,126.461885 125.895884,127.527 124.581999,127.527 Z M135.563999,125.148 C134.250113,125.148 133.184999,124.082885 133.184999,122.769 C133.184999,121.455115 134.250113,120.39 135.563999,120.39 C136.877884,120.39 137.942999,121.455115 137.942999,122.769 C137.942999,124.082885 136.877884,125.148 135.563999,125.148 Z M135.563999,113.069 C134.249561,113.069 133.183999,112.003438 133.183999,110.689 C133.183999,109.374562 134.249561,108.309 135.563999,108.309 C136.878437,108.309 137.943999,109.374562 137.943999,110.689 C137.943999,112.003438 136.878437,113.069 135.563999,113.069 Z" transform="translate(-42 -44)"/>
</svg>
