<svg xmlns="http://www.w3.org/2000/svg" viewBox="0 0 87.83 104.92"><defs><style></style></defs><title>pain</title><g id="Layer_2" data-name="Layer 2"><g id="Layer_1-2" data-name="Layer 1"><path id="pain" class="cls-1" d="M33.93,104.92l-.67-3.68-.89,3.68H12.31l-.44-1.55a69.55,69.55,0,0,1-1.54-12.82,84.49,84.49,0,0,1,1-14.65c.09-.43.13-.8.17-1.17s.09-.79.18-1.23l.06-.32,3.59-.76h.8l-.59,4.13c-.07.67-.15,1.36-.23,2.06a79.43,79.43,0,0,0-.78,11.91,66.71,66.71,0,0,0,1.09,10.19H28.88L30.48,94a3.07,3.07,0,0,1,2.86-2.08A2.83,2.83,0,0,1,36,94.18l1.27,6.53H52.22c1.69-8.64.19-20.47-.55-25.21,0-.23,0-.36,0-.37V75c0-.51,0-1.14-.07-1.86,0-1-.1-2.06-.1-3.22s-.05-2-.1-2.87c0-.68-.07-1.29-.07-1.81l-.09-.34a8.16,8.16,0,0,1-.22-1,23.62,23.62,0,0,1-2.35,1.4l-2.5,1.51A10.72,10.72,0,0,1,40.24,69a5.26,5.26,0,0,1-4.44-2.38c-2.37-3.29-1.47-8.57.86-11.45A44.21,44.21,0,0,1,51.25,43.91l0-.22c.08-.39.48-2.43.67-4.35.18-1.62.34-3.09.51-3.94a107.3,107.3,0,0,0,2-12.65l.19-1.12,0-.07c.06-.21.21-1.81.35-3.22s.29-3.07.45-4.24a2,2,0,0,1,2-1.79h.17a1.86,1.86,0,0,1,1.43.7,1.92,1.92,0,0,1,.41,1.59c-.11.76-.22,1.85-.33,2.94,0,.44-.09.87-.13,1.29l11.1,7.41,1.17-1a1.76,1.76,0,0,1,1.41-.69,2,2,0,0,1,1.54.65,2.34,2.34,0,0,1-.17,3.08L53.07,47.77l-.08,0A32.76,32.76,0,0,0,43.66,54a37.19,37.19,0,0,0-3.85,3.83l-.2.22c-1.15,1.44-1.68,4.79-.62,6.3a1.27,1.27,0,0,0,1.1.65c.76,0,1.95-.53,3.63-1.63,1-.52,1.89-1,2.71-1.52l.72-.43a20.71,20.71,0,0,0,4.1-2.89l.65-.65H53l0-.13a1.76,1.76,0,0,0,.07-.39,3.58,3.58,0,0,1,.11-.82,1.81,1.81,0,0,0,.06-.36v-.34A14.43,14.43,0,0,1,59.8,45.74L79.27,33.21c2.87-2.23,4.34-4.49,4.34-6.69A6.76,6.76,0,0,0,81.41,22h0c-.49-.29-1.85-1.26-6.44-4.52C70,14,63.91,9.6,61.66,8.14A39.41,39.41,0,0,0,57.5,5.8a10.57,10.57,0,0,0-2.84-1.14c-.53,0-1,0-1.48-.09s-.9-.08-1.39-.08c-1.88-.17-3.58-.17-4.4-.17h-.51c-.81,0-1.62,0-2.44,0A85.92,85.92,0,0,0,30.37,5.5l-2,.34a77.55,77.55,0,0,0-10.62,2C10.89,9.7,6.6,12,5,14.75c-.72,1.3-.8,2.62-.28,4.71v.21a9,9,0,0,0,1.92,2.81c6.12,7.14,13,16.85,11.79,28.65l-.56,4.51h-.44a19.12,19.12,0,0,1-3.3-.35l-.42-.07V54.8a33.35,33.35,0,0,1,.34-4.13c1.13-9.84-4.78-18.34-10.72-25.36-2-2.37-2.43-3.28-2.8-4.4l0-.08v-.17a9.72,9.72,0,0,1,.74-7.94C3.48,8.78,8.37,6,16.63,3.85c3.91-1,8-1.71,11-2.21l1.85-.34A89.49,89.49,0,0,1,43.59,0c1.15,0,2.27,0,3.32.11h.47c1,0,2.73,0,4.61.17.51.08,1,.12,1.44.16a13.76,13.76,0,0,1,1.49.18H55a11.86,11.86,0,0,1,3.52,1.1l.73.29a34.54,34.54,0,0,1,4.82,2.58c2.2,1.44,8.09,5.64,12.82,9,3.49,2.49,6.78,4.84,7.11,5l.07,0,.06.06c1.2,1.07,3.85,3.86,3.7,7.66,0,3.47-2.06,6.85-6.12,10l-.54.36L62,49.12a10.65,10.65,0,0,0-4.52,7.11v.09a3.79,3.79,0,0,1-.09.78,2.78,2.78,0,0,0-.08.58v.12a7.81,7.81,0,0,0-.15,1.91L57.36,62v.37c.42,2.08-.18,3.71-1.63,4.38a22,22,0,0,1,.11,2.73c0,1,.05,2.06.1,3,0,.74.07,1.41.07,1.95,1.65,8.94,1.59,18.24-.18,30l-.06.43Zm24.41-79c-.42,3.16-.89,6.75-1.67,10.39-.14.56-.28,1.72-.42,2.85l0,.24L67.23,29l-8.54-5.6C58.57,24.18,58.46,25,58.34,25.88ZM23,91.32l-1.16-.5c-.18-.09-.38-.17-.58-.25s-.45-.18-.63-.27a14.17,14.17,0,0,1-2.14-1L17.79,89a1.12,1.12,0,0,1-.55-.3l-.15-.15v-.21a1,1,0,0,1,.31-.69c.35-.35.69-.65,1-1s.66-.58,1-.91c.61-.53,1.2-1.07,1.78-1.62S22.43,83,23,82.53a1.82,1.82,0,0,0,.67-1.14,1.6,1.6,0,0,0-.62-1.28c-.13-.06-.35-.19-.57-.33s-.4-.24-.56-.32l-.07,0-.06-.06-.12-.08a1.63,1.63,0,0,1-.25-.15,1.17,1.17,0,0,1-.47-.28l-.15-.15v-1L21,77.6c1.5-1.09,3-2.22,4.58-3.39,2.35-1.75,4.78-3.57,7.61-5.59a1.19,1.19,0,0,1,.78-.33.75.75,0,0,1,.54.22l.23.23,0,.07a1.25,1.25,0,0,1-.26,1.42l-.46.62c-.58.83-1.22,1.73-1.85,2.62S31,75.24,30.36,76.08a1.27,1.27,0,0,0-.3,1.18,2.18,2.18,0,0,0,1.13,1.13l.07,0,.06.06.14,0a1.7,1.7,0,0,1,.36.16,1.72,1.72,0,0,1,.67.26l.22.12a3.47,3.47,0,0,1,.71.36,3,3,0,0,0,.58.29c.64.31.68.7.68.81v.12l-.22.44c-.62,1.12-1.31,2.12-2,3.17l-.87,1.28c-.42.67-.84,1.31-1.27,1.94s-.84,1.26-1.26,1.94a16.26,16.26,0,0,1-1,1.64c-.28.43-.57.88-.87,1.39l-.38.76ZM6.46,71.89l-.31-.62a23,23,0,0,1-1.21-3.1L4.45,67c-.08-.15-.17-.38-.26-.6S4,66,4,65.86L2.88,62.67v-.92H6.43a45,45,0,0,0,4.74.17,2.77,2.77,0,0,0,1.42-.42,3,3,0,0,0,.29-1.28,2.48,2.48,0,0,0-.2-.88l-.13-.39v-.08a1,1,0,0,1-.17-.51v-.84h.3a1.48,1.48,0,0,0,.06-.17l.13-.4.42.06c2.23.34,4.56.65,7,1s5,.65,7.85,1.07h0a1.3,1.3,0,0,1,.95.48l.15.15V60c0,.63-.93.84-1.18.84l-.75.16c-1,.17-2.07.38-3.12.59s-2.13.43-3.16.6a1.69,1.69,0,0,0-1.16.75,1.87,1.87,0,0,0,0,1.36,1.43,1.43,0,0,1,.22.46,1.19,1.19,0,0,0,.06.16l.06.06,0,.06a3.39,3.39,0,0,1,.2.49,2.47,2.47,0,0,0,.14.36l.16.46.4,1.21v.59c0,.27-.22.67-.84.67-.93.18-1.91.42-2.85.65-.78.19-1.54.38-2.3.53-1.3.33-2.79.66-4.28,1l-.11,0c-.67.19-1.31.33-2,.49-.48.11-1,.22-1.54.36H6.46Z"/></g></g></svg>