<svg xmlns="http://www.w3.org/2000/svg" width="95" height="53" viewBox="0 0 95 53">
  <g fill-rule="evenodd">
    <path fill-rule="nonzero" d="M90.3186164,32.9896894 C86.8977028,29.818322 81.9134653,26.6268788 76.2846553,24.0033788 C70.6907957,21.3963409 66.4031542,20.2576439 63.172057,20.5216402 C60.3119555,20.7557235 58.2042903,22.0734962 56.893854,24.4370152 L13.0402363,1.06441667 C11.2346704,0.101984848 9.17099441,-0.0712689394 7.23024711,0.576575758 C5.28929895,1.22442045 3.74405273,2.60201894 2.8793335,4.45561364 C2.01441342,6.30920833 1.95194473,8.37781439 2.70317584,10.2803939 C3.45420607,12.1827727 4.91328167,13.6513144 6.81164668,14.4149962 L53.9160462,33.3705265 C53.6410635,35.2827424 53.6659707,37.0580417 53.9905668,38.7148939 C54.9265927,43.4925227 58.3473054,47.2880455 64.1578972,49.9960644 C68.1747741,51.8681288 72.4262601,52.8279508 76.5343292,52.82775 C78.4053767,52.82775 80.2472989,52.6285985 82.0227352,52.2258788 C87.883543,50.8966629 92.3429231,47.5245379 94.5797439,42.7308485 L94.5797439,42.7308485 C95.4398432,40.8864886 95.3990678,37.6994621 90.3186164,32.9896894 L90.3186164,32.9896894 Z M60.2324134,26.7228409 C60.8892385,25.314928 61.8664415,24.6572462 63.5000678,24.5235417 C63.7015344,24.5070795 63.9108346,24.4988485 64.1285711,24.4988485 C66.5935732,24.4988485 70.1066834,25.5542311 74.5867525,27.6423106 C79.8469771,30.0939621 84.4640354,33.0384735 87.586867,35.9333977 C90.8525128,38.960822 91.1070074,40.6724811 90.9388843,41.0336439 C90.7705603,41.3946061 89.2954156,42.3002235 84.8752039,41.7459318 C80.6490268,41.2157311 75.424556,39.5737348 70.1643313,37.1220833 C58.0209015,31.462928 59.6274113,28.0193333 60.2324134,26.7228409 L60.2324134,26.7228409 Z M6.43964668,8.80643182 C6.09737454,7.93956061 6.12589722,6.99700379 6.51999225,6.15241667 C6.91408728,5.30782955 7.61811536,4.68026136 8.50251925,4.38494697 C8.85423199,4.26750379 9.21458188,4.20928409 9.57292314,4.20928409 C10.1160592,4.20928409 10.6541737,4.34298864 11.1499059,4.60718561 L55.1716467,28.0695227 L54.5909491,29.3138182 L8.31169851,10.6903409 C7.44677843,10.342428 6.78191882,9.67330303 6.43964668,8.80643182 L6.43964668,8.80643182 Z M76.5706856,48.8142045 C73.1210484,48.8140038 69.4259555,48.0210114 65.8555992,46.3569318 C59.589448,43.4365114 57.0284329,39.4819886 57.9349318,33.6911364 C59.9315192,36.0749318 63.3901953,38.3952879 68.4662277,40.7610152 C74.0952385,43.3843144 79.7449383,45.1489735 84.3748519,45.7297652 C85.2319383,45.8373712 86.0195257,45.8996061 86.7450462,45.9234962 C84.0090786,47.8130265 80.4449491,48.8144053 76.5706856,48.8142045 L76.5706856,48.8142045 Z" transform="matrix(-1 0 0 1 97.182 0)"/>
    <circle cx="25.5" cy="29.5" r="2.5"/>
    <circle cx="8.5" cy="27.5" r="2.5"/>
    <circle cx="12.5" cy="35.5" r="2.5"/>
    <circle cx="20.5" cy="34.5" r="2.5"/>
    <circle cx="17.5" cy="23.5" r="2.5"/>
    <circle cx="9.5" cy="20.5" r="2.5"/>
    <circle cx="2.5" cy="23.5" r="2.5"/>
  </g>
</svg>
