<svg xmlns="http://www.w3.org/2000/svg" width="260" height="260" viewBox="0 0 260 260">
  <defs>
    <linearGradient id="a" x1="50%" x2="50%" y1="100%" y2="0%">
      <stop stop-color="#FEC03A" offset="0%"/>
      <stop stop-color="#F27418" offset="100%"/>
    </linearGradient>
  </defs>
  <g fill="none" fill-rule="evenodd" transform="translate(0 -1)">
    <path fill="url(#a)" fill-rule="nonzero" d="M18.5,259 C11.6,256.9 5.5,251.7 1.9,244.9 C0.1,241.5 0,236.7 0,129.9 L0,18.4 L2.2,14.3 C5,9 11.1,3.6 16.6,1.5 C20.6,-3.57353036e-16 30.3,-0.1 131,0.1 L241,0.4 L245.1,2.6 C250.4,5.4 255.8,11.5 257.9,17 C259.4,21 259.5,30.6 259.3,131.4 L259,241.4 L256.8,245.4 C254,250.7 249,255.3 243.5,257.8 C239.1,259.8 237.4,259.8 130,259.8 C70,259.8 19.9,259.4 18.5,259 Z" transform="matrix(1 0 0 -1 .5 260.9)"/>
    <path fill="#FFFFFF" d="M199,80.18128 C199,85.4096455 196.347392,88.0428456 191.045784,88.0428456 L140.593742,88.0428456 L140.593742,184.073976 C140.593742,189.370403 137.979608,192 132.713266,192 C127.128724,192 123.777197,191.831046 122.697158,191.489134 C119.55723,190.566694 117.988269,188.106051 117.988269,184.073976 L117.988269,88.0428456 L68.0588132,88.0428456 C62.6886756,88.0428456 60,85.4096455 60,80.18128 C60,76.6292424 60.4191913,74.2014295 61.2211052,72.800953 C62.3728795,70.9228411 64.6756265,70 68.0588132,70 L191.045784,70 C194.393704,70 196.62672,70.9228411 197.780097,72.800953 C198.617278,74.2014295 199,76.6292424 199,80.18128 Z"/>
  </g>
</svg>
