<?xml version="1.0" encoding="iso-8859-1"?><!DOCTYPE svg PUBLIC "-//W3C//DTD SVG 1.1//EN" "http://www.w3.org/Graphics/SVG/1.1/DTD/svg11.dtd"><svg xmlns="http://www.w3.org/2000/svg" xmlns:xlink="http://www.w3.org/1999/xlink"><symbol viewBox="0 0 451.847 451.847" id="icon-arrow-down"><path d="M225.923 354.706c-8.098 0-16.195-3.092-22.369-9.263L9.27 151.157c-12.359-12.359-12.359-32.397 0-44.751 12.354-12.354 32.388-12.354 44.748 0l171.905 171.915 171.906-171.909c12.359-12.354 32.391-12.354 44.744 0 12.365 12.354 12.365 32.392 0 44.751L248.292 345.449c-6.177 6.172-14.274 9.257-22.369 9.257z"/></symbol><symbol viewBox="0 0 25 26" id="icon-cart"><title>Shape</title><path d="M7.553 16.788h13.612c1.544 0 2.803-1.222 2.803-2.72V8.449c0-.009 0-.019-.005-.029 0-.01-.005-.024-.005-.034 0-.01-.005-.02-.005-.03-.005-.01-.005-.02-.01-.034-.006-.01-.006-.02-.01-.03-.006-.01-.006-.02-.01-.03-.006-.01-.01-.02-.016-.034a.107.107 0 0 0-.015-.025l-.015-.03-.016-.024c-.005-.01-.015-.02-.02-.03a.087.087 0 0 0-.02-.024c-.005-.01-.016-.015-.02-.025-.006-.01-.016-.014-.02-.024-.006-.01-.016-.015-.021-.02l-.026-.025c-.01-.005-.015-.014-.025-.02-.01-.004-.02-.014-.03-.02-.01-.004-.016-.009-.026-.014-.01-.005-.02-.01-.03-.02l-.03-.014-.031-.015-.03-.015c-.01-.005-.021-.005-.031-.01a.096.096 0 0 0-.036-.01c-.01 0-.02-.005-.025-.005-.015-.004-.025-.004-.04-.004-.006 0-.01-.005-.021-.005L6.126 5.537V3.201c0-.024 0-.049-.005-.069 0-.005 0-.01-.005-.02 0-.014-.005-.029-.005-.044-.005-.014-.005-.024-.01-.04 0-.009-.005-.014-.005-.024l-.015-.044c0-.005-.005-.015-.005-.02a.146.146 0 0 0-.02-.04c-.006-.004-.006-.014-.01-.019-.006-.01-.01-.02-.021-.03-.005-.01-.01-.014-.015-.024-.005-.01-.01-.015-.016-.025-.005-.01-.015-.02-.02-.03l-.015-.014-.03-.03a21.56 21.56 0 0 1-.016-.015c-.01-.01-.02-.02-.035-.03-.005-.004-.016-.009-.02-.014-.01-.01-.02-.015-.031-.025a.47.47 0 0 0-.04-.024c-.006-.005-.01-.005-.016-.01l-.066-.03-3.742-1.527a.692.692 0 0 0-.899.355c-.147.34.016.729.366.872l3.32 1.36v14.578c0 1.38 1.067 2.523 2.443 2.695a2.629 2.629 0 0 0-.396 1.38c0 1.483 1.244 2.686 2.767 2.686s2.767-1.208 2.767-2.686c0-.493-.137-.961-.38-1.355h6.163c-.244.399-.38.862-.38 1.355 0 1.483 1.243 2.686 2.766 2.686s2.767-1.208 2.767-2.686c0-1.479-1.244-2.686-2.767-2.686H7.553c-.792 0-1.432-.626-1.432-1.39v-1.803a2.9 2.9 0 0 0 1.432.374zm3.412 5.5c0 .75-.63 1.355-1.396 1.355-.767 0-1.396-.61-1.396-1.355 0-.744.63-1.355 1.396-1.355.767 0 1.396.606 1.396 1.355zm10.937 0c0 .75-.63 1.355-1.397 1.355-.766 0-1.396-.61-1.396-1.355 0-.744.63-1.355 1.396-1.355.767 0 1.397.606 1.397 1.355zm-.737-6.83H7.553c-.792 0-1.432-.626-1.432-1.39V6.878L22.597 9.08v4.982c0 .774-.645 1.395-1.432 1.395z" stroke="#FE8535" stroke-width=".5" fill="#FE8535" fill-rule="nonzero"/></symbol><symbol viewBox="0 0 91 94" id="icon-immunity"><title>Group</title><path d="M90.262 59.466l-.16-.395c-3.793-9.488-13.561-32.503-22.305-41.272-1.137-1.143-2.135-2.159-3.031-3.07-6.98-7.104-8.052-8.195-18.584-11.84-4.983-1.716-7.476-2.555-9.7-2.863-4.924-.655-9.617 11.51-9.65 11.625-.345 1.138-.95 4.69.355 7.38 1.202 2.523 2.96 3.365 4.51 4.109l.169.08c1.537 1.023 3.412 1.001 5.886-.066 1.251-.54 2.008-1.056 2.494-1.412.18.063.364.13.552.197 1.43.512 3.051 1.094 4.716 1.094 1.302.023 2.176-.377 2.75-.63.333-.147.415-.176.518-.177 1.355.353 5.44 3.228 5.846 5.19.474 2.374.624 14.42.609 21.939l-.002.332.09.322c.072.25.139.492.206.726-1.153-.542-2.39-.957-3.63-1.08-4.289-.406-8.269-.47-13.43 2.892-.316.204-.78.604-1.336 1.13-3.166-2.785-11.312-8.436-21.957-4.52-4.44 1.649-8.03 4.45-10.672 8.328C.74 63-.406 69.993.12 74.153c.275 2.205 1.056 6.496 3.187 10.47 3.1 5.785 8.007 8.961 14.19 9.186 3.844.14 6.642.191 8.7.191 3.73 0 5.033-.166 5.732-.255l.251-.029c1.476-.175 4.393-.258 7.482-.345 5.14-.147 10.456-.297 12.911-.912 5.68-1.385 24.643-8.79 36.868-24.119 2.457-3.06 1.42-7.453.82-8.874zm-4.577 5.874C72.326 82.09 51.638 87.74 51.42 87.794c-1.961.49-7.469.646-11.893.774-3.339.093-6.222.175-7.876.373l-.329.039c-.884.113-3.232.413-13.647.026-4.502-.163-7.814-2.338-10.124-6.65L5.43 83.489l2.12-1.134c-1.763-3.288-2.42-6.925-2.656-8.801-.348-2.75.32-8.578 3.585-13.361l-1.987-1.354 1.989 1.351c2.07-3.036 4.886-5.234 8.365-6.525 7.826-2.88 13.978 1.003 16.66 3.23l-3.397 4.299 3.691 3.079c2.896-3.27 6.509-7.145 7.29-7.698 3.89-2.535 6.628-2.49 10.343-2.139 2.21.221 5.15 2.552 6.257 3.429.659.524 2.197 1.742 3.735.41l1.483-1.373-.962-1.648c-.272-.644-1.168-3.631-1.902-6.226.003-3.089-.015-19.107-.705-22.569-.978-4.73-7.808-8.88-10.174-9.028-1.332-.091-2.246.308-2.845.572-.4.177-.517.223-.793.223h-.01c-.836 0-2.036-.43-3.097-.81a46.466 46.466 0 0 0-1.014-.355c-1.893-.616-2.94.003-3.851.686-.374.281-.799.6-1.717.996-.796.344-1.228.407-1.397.418a3.234 3.234 0 0 0-.347-.2l-.318-.153c-1.328-.638-1.777-.852-2.255-1.859-.514-1.057-.33-3.108-.095-3.888.557-1.612 3.452-6.994 4.884-8.197 1.73.319 4.142 1.134 8.294 2.566 9.462 3.275 10.01 3.833 16.722 10.663.902.918 1.91 1.943 3.056 3.095 8.345 8.37 18.372 32.476 21.246 39.666l.189.47c.367.853.648 3.043-.132 4.016z" fill-rule="nonzero" fill="#87827D"/></symbol><symbol viewBox="0 0 100 100" id="icon-next-arrow"><path d="M29.6 95c-1.7-.1-3.2-1.1-4.1-3-.9-1.9-.6-3.8.7-5.5l.5-.5c4.6-4.6 9.2-9.2 13.8-13.9 6.3-6.3 12.5-12.6 18.8-18.9 2-2 2-4.7 0-6.7C48.4 35.7 37.6 24.9 26.7 14c-1.2-1.2-1.9-2.4-1.9-4 .1-2.1 1.1-3.7 3-4.5 1.9-.9 3.7-.5 5.3.7.3.2.4.4.7.6l39.8 39.8c2.2 2.2 2.1 4.7 0 6.8-3.6 3.6-7.1 7.2-10.7 10.8C55 72.2 47 80.1 39.2 88l-5.4 5.4c-1.1 1-2.3 1.6-4.2 1.6z"/></symbol><symbol viewBox="0 0 96 93" id="icon-oral"><title>Combined Shape</title><path d="M68.438 37.733c1.411-3.235 1.998-4.545 1.65-9.394-.565-7.881-3.885-14.797-7.973-19.458C56.847 2.876 47.075 0 37.182 0c-9.49 0-19.09 2.646-24.931 7.714C6.391 12.799.22 20.762.009 30.887c-.267 12.797 5.456 21.061 10.712 29.076 1.683 2.564 3.964 5.666 4.372 8.744.85 6.426-.081 11.674-2.775 15.74-1.888 2.85-7.854 7.564-3.4 7.564h40.706c-2.103-3.876-2.845-10.266.072-10.266h.006c3.313.096 5.899.729 8.865.729.911 0 1.859-.06 2.875-.214 3.262-.495 5.276-1.393 5.903-4.372.733-3.489-1.201-3.955-.875-5.685.448-2.387 1.917-3.572 2.661-6.34 1.011-3.763-.848-6.039.746-6.809 2.104-1.32 3.938-1.238 5.773-3.029 3.036-2.843-8.861-14.069-7.212-18.292zm.577 11.543c.844 1.301 2.116 3.266 2.755 4.572-.229.097-.497.198-.822.319-.848.317-1.894.708-3.038 1.404-3.157 1.688-2.739 5.078-2.579 6.373.115.936.224 1.818-.062 2.882-.236.883-.593 1.531-1.043 2.352-.597 1.086-1.338 2.437-1.686 4.286-.382 2.022.35 3.502.743 4.297.269.543.296.601.148 1.306-.123.583-.185.875-2.588 1.24a15.11 15.11 0 0 1-2.276.169c-1.308 0-2.619-.156-4.008-.322-1.395-.166-2.975-.354-4.742-.405-.038-.002-.082-.002-.121-.002-2.031 0-3.802 1.017-4.856 2.789-1.223 2.054-1.261 4.845-.771 7.477H14.635c.373-.453.72-.907 1.017-1.355 3.235-4.883 4.381-11.099 3.406-18.475-.483-3.646-2.661-6.912-4.411-9.536-.199-.299-.395-.591-.582-.876l-.521-.793c-5.024-7.647-9.77-14.871-9.537-26.007.189-9.099 6.013-16.025 10.865-20.234 4.788-4.154 13.337-6.735 22.31-6.735 9.6 0 17.796 2.811 21.925 7.519 3.989 4.548 6.537 10.783 6.99 17.107.275 3.835-.027 4.529-1.3 7.448l-.026.061a6.3 6.3 0 0 0-.061.145c-1.546 3.961 1.296 8.348 4.305 12.994zm4.233 20.16a2.38 2.38 0 1 1 0 4.76 2.38 2.38 0 0 1 0-4.76zm0-3.296a2.379 2.379 0 1 1 0-4.758 2.379 2.379 0 0 1 0 4.758zm10.983-4.393a2.379 2.379 0 1 1 0-4.758 2.379 2.379 0 0 1 0 4.758zM81.484 73.46a2.379 2.379 0 1 1 0-4.758 2.379 2.379 0 0 1 0 4.758zm1.098 10.067a2.379 2.379 0 1 1 0-4.758 2.379 2.379 0 0 1 0 4.758zm10.982-2.379a2.379 2.379 0 1 1 0-4.758 2.379 2.379 0 0 1 0 4.758zm0-12.079a2.38 2.38 0 1 1 0-4.76 2.38 2.38 0 0 1 0 4.76z" fill-rule="nonzero" fill="#87827D"/></symbol><symbol viewBox="0 0 103 91" id="icon-others"><title>Combined Shape</title><path d="M88.89 19.736H71.169v-7.817c0-6.53-5.37-11.919-11.9-11.919H43.414C36.884 0 31.63 5.39 31.63 11.919v7.817H13.793C6.155 19.736 0 26.01 0 33.629v43.417c0 7.618 6.155 13.738 13.793 13.738H88.89c7.637 0 13.91-6.12 13.91-13.738V33.63c0-7.618-6.273-13.893-13.91-13.893zm-53.306-7.817c0-4.353 3.48-7.972 7.83-7.972h15.855c4.35 0 7.946 3.619 7.946 7.972v7.817h-31.63v-7.817zm63.261 65.127c0 5.442-4.498 9.791-9.955 9.791H13.793c-5.458 0-9.839-4.35-9.839-9.79V33.628c0-5.442 4.381-9.946 9.839-9.946H88.89c5.457 0 9.955 4.504 9.955 9.946v43.417zm-29.712-29.68h-9.826v-9.79c0-1.09-.944-2.052-2.035-2.052H45.41c-1.091 0-1.918.961-1.918 2.051v9.79h-9.943c-1.092 0-1.919.962-1.919 2.052v11.841c0 1.09.827 1.896 1.919 1.896h9.943V73.1c0 1.09.827 1.897 1.918 1.897h11.862c1.092 0 2.035-.807 2.035-1.897v-9.945h9.826c1.092 0 2.036-.806 2.036-1.896V49.417c0-1.09-.944-2.051-2.036-2.051zm-1.918 11.841h-9.943c-1.092 0-1.919.961-1.919 2.051v9.79h-7.907v-9.79c0-1.09-.944-2.05-2.036-2.05h-9.826v-7.895h9.826c1.092 0 2.036-.807 2.036-1.896v-9.945h7.907v9.945c0 1.09.827 1.896 1.919 1.896h9.943v7.894z" fill-rule="nonzero" fill="#87827D"/></symbol><symbol viewBox="0 0 89 106" id="icon-pain"><title>svg+xml</title><path d="M84.271 19.564c-.677-.339-16.077-11.516-19.97-14.056-1.86-1.186-3.553-2.033-4.738-2.54-1.692-.678-3.215-1.355-4.061-1.355h-.17c-.846-.17-1.861-.17-2.876-.34-1.862-.169-3.554-.169-4.57-.169h-.507c-5.077-.338-11 .17-17.262 1.186l-1.861.339c-3.046.508-7.108 1.185-11 2.201C9.302 6.863 4.394 9.572 2.194 13.467.84 15.838.671 18.38 1.517 21.088v.17c.339 1.016.677 1.863 2.708 4.234 5.585 6.604 12.015 15.41 10.83 25.742-.169 1.354-.338 2.71-.338 4.064 1.016.17 2.031.339 3.216.339l.507-4.065c1.185-11.685-5.584-21.17-11.677-28.282-1.692-2.032-1.861-2.54-2.03-3.048v-.17c-.508-2.032-.508-3.556.338-5.08 1.692-2.88 6.092-5.25 13.03-7.113 3.893-1.016 7.616-1.694 10.662-2.033l2.031-.338c6.092-1.016 11.677-1.355 16.585-1.186h.507c.847 0 2.539 0 4.4.17 1.016 0 1.862.169 2.877.169.339 0 1.354.339 3.047 1.185 1.015.508 2.707 1.355 4.23 2.371 3.893 2.54 19.631 13.887 19.8 13.887 0 0 2.37 2.033 2.37 4.912 0 2.37-1.524 4.742-4.57 7.113L60.58 46.66c-3.385 2.202-5.754 5.758-6.262 9.653v.339c0 .339-.169.677-.169 1.185 0 .34-.17.678-.17 1.016H52.626l-.508.509c-1.354 1.354-3.215 2.37-4.907 3.387-.847.508-1.693 1.016-2.708 1.524-3.385 2.201-4.57 2.032-5.416.847-1.184-1.694-.676-5.25.677-6.944.17-.17 1.523-1.863 4.062-4.064 2.37-2.202 5.754-4.742 9.477-6.267l18.615-17.274 2.37-2.201A1.815 1.815 0 0 0 74.455 26c-.339-.339-.677-.508-1.185-.508-.338 0-.846.169-1.015.508l-1.523 1.354-11.677-7.79c.169-1.524.338-3.387.507-4.572.17-.847-.507-1.694-1.353-1.694h-.17c-.846 0-1.523.677-1.523 1.355-.338 2.54-.677 7.282-.846 7.62l-.17 1.017c-.338 3.556-1.015 8.129-2.03 12.702-.17.846-.338 2.37-.508 3.895-.169 1.693-.507 3.556-.677 4.403h.339l-.508.508c-8.123 3.556-13.877 10.33-14.554 11.177-2.2 2.71-3.046 7.79-.846 10.84 3.046 4.233 7.954 1.185 9.646 0l2.539-1.525c1.015-.508 2.03-1.186 3.046-1.863v.508c0 .508.17 1.016.338 1.694 0 1.185.17 2.879.17 4.742 0 2.032.169 3.895.169 5.08v.17c0 .169 2.708 15.58.508 26.08H37.394l-1.354-6.943c-.169-1.016-1.184-1.863-2.2-1.863-1.015 0-2.03.677-2.369 1.693l-1.692 7.113H15.733c-.677-3.217-1.016-6.774-1.185-10.67-.17-4.741.508-9.483 1.015-14.056l.508-3.556h-.17l-3.215.677c-.169.847-.169 1.525-.338 2.371-.677 4.742-1.185 9.654-1.015 14.565.169 4.742.677 8.976 1.523 12.702l.338 1.185h19.292l1.354-5.589 1.016 5.589H55.84c1.523-10.161 2.031-19.815.17-29.976 0-1.185-.17-3.048-.17-4.911 0-1.016 0-2.202-.169-3.048 2.2-.678 1.862-3.218 1.692-4.065v-.339l-.169-2.37c0-.678 0-1.356.17-2.033 0-.508.169-.847.169-1.355v-.17c.507-3.048 2.2-5.757 4.738-7.45l19.123-12.364.508-.338c3.892-3.049 5.923-6.266 5.923-9.654.17-4.233-3.385-7.112-3.554-7.282zM56.179 40.225c.169-1.354.338-2.879.507-3.556 1.016-4.742 1.524-9.484 2.031-13.04v-.678l9.816 6.436-12.354 11.685v-.847zm-42.816 18.29s.17 0 .339-.507c4.4.677 9.138 1.185 14.892 2.032.339 0 .508.17.677.339v.169c0 .17-.508.339-.677.339l-.846.17c-2.03.338-4.23.846-6.262 1.185-.846.169-1.353.677-1.523 1.016-.169.508-.338 1.185 0 1.863.17.169.17.508.339.677.169.339.169.508.338.847l.508 1.524v.508s0 .17-.338.17c-1.862.338-3.554.846-5.247 1.185-1.353.339-2.877.677-4.4 1.016-1.184.339-2.2.508-3.553.847H7.27l-.17-.339c-.507-1.016-.845-2.032-1.184-3.048l-.507-1.186c-.17-.338-.339-.847-.508-1.185l-1.016-3.049v-.338h3.047c1.523.169 3.215.169 4.738.169.508 0 1.185-.17 1.692-.508.339-.339.508-1.186.508-1.694s-.17-.846-.338-1.354c0-.17-.17-.34-.17-.509v-.338zm8.462 20.493V78.5c3.723-2.71 7.446-5.589 12.185-8.976.169-.17.507-.339.676-.17l.17.17c.169.339 0 .677-.17.847l-.507.677c-1.185 1.694-2.539 3.556-3.723 5.25-.508.677-.508 1.355-.339 1.694.17.508.677 1.016 1.354 1.354.17.17.508.17.677.34.338 0 .508.168.846.338.508.17.846.508 1.354.677.338.17.338.339.338.339l-.169.339c-.846 1.524-1.861 2.879-2.877 4.403-.846 1.355-1.692 2.54-2.538 3.895-.508 1.016-1.185 1.863-1.862 3.048l-.169.34-.338-.17-3.047-1.524-1.184-.508c-.339-.17-.846-.34-1.185-.509-1.015-.338-1.861-.846-2.877-1.354-.169 0-.338-.17-.338-.17s0-.169.169-.338c.677-.678 1.354-1.186 2.03-1.863 1.185-1.016 2.37-2.202 3.555-3.218.338-.339.846-.847.846-1.524 0-.678-.339-1.355-.846-1.694-.339-.17-.846-.508-1.185-.677-.17-.17-.338-.17-.508-.339-.169 0-.338-.17-.338-.17z" fill-rule="nonzero" stroke="#87827D" fill="#87827D"/></symbol><symbol viewBox="0 0 100 100" id="icon-prev-arrow"><path d="M72.7 0c1.9.1 3.6 1.2 4.6 3.3s.7 4.2-.8 6.1l-.6.6c-5.1 5.1-10.2 10.2-15.3 15.4-7 7-13.9 14-20.9 21-2.2 2.2-2.2 5.2 0 7.4L75.9 90c1.3 1.3 2.1 2.7 2.1 4.5-.1 2.3-1.2 4.1-3.3 5-2.1 1-4.1.6-5.9-.8-.3-.2-.5-.5-.8-.7L23.8 53.8c-2.4-2.4-2.3-5.2 0-7.6 4-4 7.9-8 11.9-12C44.5 25.4 53.3 16.6 62 7.8l6-6C69.2.7 70.6 0 72.7 0z"/></symbol></svg>